<svg viewBox="499.9915 303.9915 416.0169 416.0169" width="64" height="64" xmlns="http://www.w3.org/2000/svg" xmlns:xlink="http://www.w3.org/1999/xlink" preserveAspectRatio="none"><defs></defs><style>.aa9J8-7jJ2lKfillColor {fill:#FFFFFF;fill-opacity:0;}.aa9J8-7jJ2lKstrokeColor-str {stroke:#FFFFFF;stroke-opacity:1;}.aD6z1nYkhcolor {fill:#FFFFFF;fill-opacity:1;}.aD6z1nYkhstrokeColor-str {stroke:#000000;stroke-opacity:1;}.aJs2XHYY3x6fillColor {fill:#FFFFFF;fill-opacity:0;}.aJs2XHYY3x6strokeColor-str {stroke:#FFFFFF;stroke-opacity:1;}.aoqFbYF5f4fillColor {fill:#FFFFFF;fill-opacity:0;}.aoqFbYF5f4strokeColor-str {stroke:#FFFFFF;stroke-opacity:1;}.ashadowtTqri6yRaH-floo {flood-color:#000000;flood-opacity:1;}.atDLA8REcPfillColor {fill:#FFFFFF;fill-opacity:0;}.atDLA8REcPstrokeColor-str {stroke:#FFFFFF;stroke-opacity:1;}</style><defs>
      <filter
        x="-1000"
        y="-1000"
        width="64"
        height="64"
        id="a0-a4SqbRU"
        filterUnits="userSpaceOnUse"
        primitiveUnits="userSpaceOnUse"
        color-interpolation-filters="sRGB">
        <feMerge><feMergeNode in="SourceGraphic" /></feMerge>
      </filter></defs><g opacity="0.2" transform="rotate(0 499.9915 303.9915)">
<svg width="416.0169" height="416.0169" x="499.9915" y="303.9915" version="1.1" preserveAspectRatio="none" viewBox="0 0 416.0169 416.0169">
  <rect x="5" y="5" width="406.0169" height="406.0169" class="atDLA8REcPfillColor atDLA8REcPstrokeColor-str" style="stroke-width:10;" rx="50%" ry="50%" />
</svg>
</g><g opacity="1" transform="rotate(-5 515.4915 477.9796)">
<svg width="377.6217" height="101.3382" x="515.4915" y="477.9796" version="1.1" preserveAspectRatio="none" viewBox="0.24 -29.6 147.59999999999997 39.6">
  <g transform="matrix(1 0 0 1 0 0)" class="aD6z1nYkhcolor"><path id="id-D6z1nYkh8" d="M22.36 10Q20.56 10 18.82 8.98Q17.08 7.96 14.40 5.84L14.40 5.84Q12.40 4.24 10.98 3.26Q9.56 2.28 7.90 1.60Q6.24 0.92 4.52 0.92L4.52 0.92Q3.92 0.92 3.60 0.96L3.60 0.96L9.56-26.76Q6.88-25.68 5.42-23.46Q3.96-21.24 3.96-18.04L3.96-18.04Q3.96-16.56 4.24-15.98Q4.52-15.40 4.52-15.32L4.52-15.32Q2.36-15.32 1.30-16.22Q0.24-17.12 0.24-19.20L0.24-19.20Q0.24-21.76 2.34-24.18Q4.44-26.60 7.72-28.10Q11-29.60 14.28-29.60L14.28-29.60Q14.84-29.60 15.88-29.52L15.88-29.52L9.72-0.80Q10.84-0.52 12.02 0.02Q13.20 0.56 14.88 1.48L14.88 1.48Q17.48 2.88 19.32 3.62Q21.16 4.36 23.16 4.36L23.16 4.36Q24.96 4.36 26.52 3.72L26.52 3.72Q26.20 6.64 25.10 8.32Q24 10 22.36 10L22.36 10Z M20.80 0.24Q17.88 0.24 16.24-1.30Q14.60-2.84 14.60-6.12L14.60-6.12Q14.60-8.88 15.68-12.20Q16.76-15.52 19.20-17.94Q21.64-20.36 25.40-20.36L25.40-20.36Q29.80-20.36 29.80-16.52L29.80-16.52Q29.80-14.28 28.52-12.40Q27.24-10.52 25.12-9.38Q23-8.24 20.60-8.08L20.60-8.08Q20.52-7.20 20.52-6.88L20.52-6.88Q20.52-3.56 23-3.56L23-3.56Q24.12-3.56 25.40-4.16Q26.68-4.76 27.72-5.68L27.72-5.68Q26.64 0.24 20.80 0.24L20.80 0.24ZM20.88-10Q22.40-10.04 23.74-11Q25.08-11.96 25.90-13.46Q26.72-14.96 26.72-16.60L26.72-16.60Q26.72-18.24 25.72-18.24L25.72-18.24Q24.32-18.24 22.94-15.70Q21.56-13.16 20.88-10L20.88-10Z M53.44 0.24Q51.32 0.24 50.36-1.04Q49.40-2.32 49.40-4.28L49.40-4.28Q49.40-5.12 49.60-6.18Q49.80-7.24 50.02-8.24Q50.24-9.24 50.32-9.52L50.32-9.52Q50.64-10.92 50.92-12.28Q51.20-13.64 51.20-14.48L51.20-14.48Q51.20-16.52 49.76-16.52L49.76-16.52Q48.72-16.52 47.92-15.50Q47.12-14.48 46.64-12.84L46.64-12.84L43.92 0L38.16 0L41.08-13.80Q41.20-14.28 41.20-14.80L41.20-14.80Q41.20-16.56 40-16.56L40-16.56Q38.88-16.56 38.06-15.54Q37.24-14.52 36.76-12.84L36.76-12.84L34.04 0L28.28 0L32.52-20L38.28-20L37.84-17.92Q39.88-20.20 42.72-20.20L42.72-20.20Q46.24-20.20 46.84-16.76L46.84-16.76Q49.04-20.16 52.40-20.16L52.40-20.16Q54.44-20.16 55.64-19.04Q56.84-17.92 56.84-15.64L56.84-15.64Q56.84-14.48 56.56-13.06Q56.28-11.64 55.76-9.60L55.76-9.60Q55.44-8.36 55.18-7.18Q54.92-6 54.92-5.32L54.92-5.32Q54.92-4.52 55.28-4.08Q55.64-3.64 56.52-3.64L56.52-3.64Q57.48-3.64 57.84-3.88L57.84-3.88Q57.60-1.84 56.38-0.80Q55.16 0.24 53.44 0.24L53.44 0.24Z M63.68 0.16Q60.72 0.16 59-1.36Q57.28-2.88 57.28-6.16L57.28-6.16Q57.28-8.92 58.36-12.22Q59.44-15.52 61.88-17.94Q64.32-20.36 68.12-20.36L68.12-20.36Q72.84-20.36 73.20-14.96L73.20-14.96Q74.08-15.16 74.76-15.94Q75.44-16.72 76.04-17.72L76.04-17.72L77.32-17.72Q76.24-15.56 75.40-14.34Q74.56-13.12 73.20-12.36L73.20-12.36Q72.96-8.60 71.66-5.76Q70.36-2.92 68.28-1.38Q66.20 0.16 63.68 0.16L63.68 0.16ZM65.28-3.44Q66.76-3.44 68.04-5.84Q69.32-8.24 69.80-11.76L69.80-11.76Q68.84-12.12 68.84-13.56L68.84-13.56Q68.84-15.12 69.96-15.64L69.96-15.64Q69.88-16.92 69.54-17.42Q69.20-17.92 68.44-17.92L68.44-17.92Q67.12-17.92 65.92-16.02Q64.72-14.12 63.98-11.42Q63.24-8.72 63.24-6.68L63.24-6.68Q63.24-4.76 63.68-4.10Q64.12-3.44 65.28-3.44L65.28-3.44Z M91.08 0.24Q88.96 0.24 88-1.04Q87.04-2.32 87.04-4.28L87.04-4.28Q87.04-5.12 87.24-6.18Q87.44-7.24 87.66-8.24Q87.88-9.24 87.96-9.52L87.96-9.52Q88.28-10.92 88.56-12.28Q88.84-13.64 88.84-14.48L88.84-14.48Q88.84-16.52 87.40-16.52L87.40-16.52Q86.36-16.52 85.56-15.50Q84.76-14.48 84.28-12.84L84.28-12.84L81.56 0L75.80 0L80.04-20L85.80-20L85.36-17.92Q87.36-20.16 90.04-20.16L90.04-20.16Q92.08-20.16 93.28-19.04Q94.48-17.92 94.48-15.64L94.48-15.64Q94.48-14.48 94.20-13.06Q93.92-11.64 93.40-9.60L93.40-9.60Q93.08-8.36 92.82-7.18Q92.56-6 92.56-5.32L92.56-5.32Q92.56-4.52 92.92-4.08Q93.28-3.64 94.16-3.64L94.16-3.64Q95.12-3.64 95.48-3.88L95.48-3.88Q95.24-1.84 94.02-0.80Q92.80 0.24 91.08 0.24L91.08 0.24Z M100.28 0.24Q98 0.24 96.48-1.32Q94.96-2.88 94.96-6.20L94.96-6.20Q94.96-9.16 96.14-12.42Q97.32-15.68 99.66-17.94Q102-20.20 105.24-20.20L105.24-20.20Q106.88-20.20 107.68-19.64Q108.48-19.08 108.48-18.16L108.48-18.16L108.48-17.88L108.92-20L114.68-20L111.80-6.40Q111.64-5.80 111.64-5.12L111.64-5.12Q111.64-4.32 112.02-3.98Q112.40-3.64 113.28-3.64L113.28-3.64Q113.84-3.64 114.16-3.80L114.16-3.80Q113.28-1.56 112.48-0.66Q111.68 0.24 110.16 0.24L110.16 0.24Q108.52 0.24 107.50-0.74Q106.48-1.72 106.24-3.48L106.24-3.48Q103.80 0.24 100.28 0.24L100.28 0.24ZM102.88-3.64Q103.88-3.64 104.86-4.58Q105.84-5.52 106.20-7.16L106.20-7.16L108.12-16.20Q108.12-16.72 107.72-17.22Q107.32-17.72 106.48-17.72L106.48-17.72Q104.88-17.72 103.60-15.86Q102.32-14 101.60-11.38Q100.88-8.76 100.88-6.76L100.88-6.76Q100.88-4.76 101.46-4.20Q102.04-3.64 102.88-3.64L102.88-3.64Z M118.96 0.24Q116.68 0.24 115.16-1.32Q113.64-2.88 113.64-6.20L113.64-6.20Q113.64-9.16 114.82-12.42Q116-15.68 118.34-17.94Q120.68-20.20 123.92-20.20L123.92-20.20Q125.56-20.20 126.36-19.64Q127.16-19.08 127.16-18.16L127.16-18.16L127.16-18L129.12-27.20L135.04-28L130.44-6.40Q130.28-5.80 130.28-5.24L130.28-5.24Q130.28-3.64 131.92-3.64L131.92-3.64Q132.64-3.64 133.20-3.88L133.20-3.88Q133.04-1.88 131.78-0.82Q130.52 0.24 128.80 0.24L128.80 0.24Q127.20 0.24 126.10-0.58Q125-1.40 124.64-3.08L124.64-3.08Q122.24 0.24 118.96 0.24L118.96 0.24ZM121.56-3.64Q122.44-3.64 123.34-4.40Q124.24-5.16 124.68-6.52L124.68-6.52L124.84-7.16L126.80-16.32Q126.44-17.72 125.16-17.72L125.16-17.72Q123.56-17.72 122.28-15.86Q121-14 120.28-11.38Q119.56-8.76 119.56-6.76L119.56-6.76Q119.56-4.76 120.14-4.20Q120.72-3.64 121.56-3.64L121.56-3.64Z M138.84 0.24Q135.92 0.24 134.28-1.30Q132.64-2.84 132.64-6.12L132.64-6.12Q132.64-8.88 133.72-12.20Q134.80-15.52 137.24-17.94Q139.68-20.36 143.44-20.36L143.44-20.36Q147.84-20.36 147.84-16.52L147.84-16.52Q147.84-14.28 146.56-12.40Q145.28-10.52 143.16-9.38Q141.04-8.24 138.64-8.08L138.64-8.08Q138.56-7.20 138.56-6.88L138.56-6.88Q138.56-3.56 141.04-3.56L141.04-3.56Q142.16-3.56 143.44-4.16Q144.72-4.76 145.76-5.68L145.76-5.68Q144.68 0.24 138.84 0.24L138.84 0.24ZM138.92-10Q140.44-10.04 141.78-11Q143.12-11.96 143.94-13.46Q144.76-14.96 144.76-16.60L144.76-16.60Q144.76-18.24 143.76-18.24L143.76-18.24Q142.36-18.24 140.98-15.70Q139.60-13.16 138.92-10L138.92-10Z"/></g>
</svg>
</g><g opacity="0.2" transform="rotate(0 561.938 439.8628)">
<svg width="24" height="24" x="561.938" y="439.8628" version="1.1" preserveAspectRatio="none" viewBox="0 0 24 24">
  <rect x="2.5" y="2.5" width="19" height="19" class="aoqFbYF5f4fillColor aoqFbYF5f4strokeColor-str" style="stroke-width:5;" rx="50%" ry="50%" />
</svg>
</g><g opacity="0.2" transform="rotate(0 578.938 395.8628)">
<svg width="29" height="29" x="578.938" y="395.8628" version="1.1" preserveAspectRatio="none" viewBox="0 0 29 29">
  <rect x="2.5" y="2.5" width="24" height="24" class="aJs2XHYY3x6fillColor aJs2XHYY3x6strokeColor-str" style="stroke-width:5;" rx="50%" ry="50%" />
</svg>
</g><g opacity="0.2" transform="rotate(0 618.938 357.8628)">
<svg width="38" height="38" x="618.938" y="357.8628" version="1.1" preserveAspectRatio="none" viewBox="0 0 38 38">
  <rect x="2.5" y="2.5" width="33" height="33" class="aa9J8-7jJ2lKfillColor aa9J8-7jJ2lKstrokeColor-str" style="stroke-width:5;" rx="50%" ry="50%" />
</svg>
</g></svg>